<svg xmlns="http://www.w3.org/2000/svg" viewBox="0 0 20 20">
  <path fill="hsl(195deg 100% 50%)"
    d="m18.79 11.95-2.33.62-2-1.13V8.56l2-1.13 2.33.62.52-1.93-1.77-.47.46-1.77-1.93-.52-.62 2.33-2 1.13L11 5.38V3.12l1.71-1.71L11.29 0 10 1.29 8.71 0 7.29 1.41 9 3.12v2.26L6.5 6.82l-2-1.13-.58-2.33L2 3.88l.47 1.77-1.77.47.52 1.93 2.33-.62 2 1.13v2.89l-2 1.13-2.33-.62-.52 1.93 1.77.47L2 16.12l1.93.52.62-2.33 2-1.13L9 14.62v2.26l-1.71 1.71L8.71 20 10 18.71 11.29 20l1.41-1.41-1.7-1.71v-2.26l2.5-1.45 2 1.13.62 2.33 1.88-.51-.47-1.77 1.77-.47zM7.5 8.56 10 7.11l2.5 1.45v2.88L10 12.89l-2.5-1.45z" />
</svg>
