<svg xmlns="http://www.w3.org/2000/svg" viewBox="0 0 15 19">
  <path fill="hsl(0deg 100% 50%)"
    d="M13.16 8.7s.56.8.77 1.26l.13.26c.94 2.28.3 4.94-1.53 6.6-1.64 1.48-3.93 1.87-6.07 1.6-2.01-.25-3.88-1.49-4.96-3.22-.3-.53-.57-1.13-.71-1.73-.17-.5-.23-1-.29-1.5-.13-2.17.78-4.47 2.45-5.83-.76 1.64-.58 3.69.55 5.12.04.07.08.12.14.17.19.16.43.22.66.12.2-.08.35-.28.35-.5 0-.13-.04-.23-.08-.33-1.22-3.15-.2-6.82 2.39-8.9C7.67 1.25 8.5.73 9.45.5c-.95 1.85-.62 4.26.87 5.72.64.63 1.4 1.06 2.07 1.66.26.26.54.52.77.82" />
  <path fill="hsl(60deg 100% 50%)"
    d="M10 15c.6-.55.96-1.45.93-2.27 0-.15-.02-.29-.06-.43-.26-1.36-1.47-1.8-2.24-2.8-.24-.3-.44-.68-.63-1.06-.27.69-.29 1.32-.17 2.06.13.77.45 1.43.28 2.23-.21.89-.92 1.77-2.11 2.05.66.66 1.78 1.22 2.9.82.36-.1.82-.36 1.1-.6" />
</svg>
