<?xml version="1.0" standalone="no"?>
<!DOCTYPE svg PUBLIC "-//W3C//DTD SVG 20010904//EN"
 "http://www.w3.org/TR/2001/REC-SVG-20010904/DTD/svg10.dtd">
<svg version="1.0" xmlns="http://www.w3.org/2000/svg"
 width="16.000000pt" height="16.000000pt" viewBox="0 0 16.000000 16.000000"
 preserveAspectRatio="xMidYMid meet">
<metadata>
Created by potrace 1.11, written by Peter Selinger 2001-2013
</metadata>
<g transform="translate(0.000000,16.000000) scale(0.003125,-0.003125)"
fill="#000000" stroke="none">
<path d="M2383 5104 c-345 -42 -755 -187 -1043 -370 -320 -203 -611 -494 -814
-814 -137 -215 -272 -547 -330 -811 -75 -338 -75 -760 0 -1098 58 -264 193
-596 330 -811 203 -320 494 -611 814 -814 135 -86 379 -200 541 -254 316 -104
542 -137 884 -129 237 6 346 19 542 68 352 86 704 257 978 475 l80 64 126
-133 c70 -72 129 -130 132 -127 11 11 334 1395 326 1398 -5 2 -153 -31 -328
-72 -176 -42 -324 -76 -330 -76 -5 0 19 56 54 125 72 144 134 323 167 486 31
154 33 508 4 664 -68 368 -242 705 -495 962 -45 46 -81 86 -81 91 0 4 41 48
91 97 50 50 162 165 250 256 l159 167 -92 77 c-376 313 -865 524 -1344 580
-158 18 -466 18 -621 -1z m632 -50 c388 -47 757 -186 1090 -410 118 -79 255
-189 255 -204 0 -5 -105 -115 -232 -245 l-233 -236 -80 61 c-173 131 -369 231
-577 294 -197 59 -286 71 -533 71 -172 0 -242 -4 -320 -19 -766 -143 -1348
-725 -1491 -1491 -27 -143 -27 -497 0 -640 143 -766 725 -1348 1491 -1491 156
-29 510 -27 664 4 291 59 617 209 797 367 l39 34 -120 120 c-65 66 -117 122
-115 124 7 5 1234 295 1238 292 3 -2 -288 -1237 -292 -1243 -2 -1 -51 50 -110
113 -59 63 -111 115 -116 115 -4 0 -43 -28 -87 -63 -328 -263 -687 -432 -1087
-512 -174 -35 -306 -47 -511 -46 -553 1 -1057 172 -1512 512 -126 95 -377 346
-472 472 -369 494 -543 1063 -510 1672 27 499 200 967 510 1382 95 126 346
377 472 472 541 405 1177 576 1842 495z m-710 -2254 c236 -133 431 -243 432
-244 2 -2 -522 -298 -889 -503 l-58 -33 0 536 0 535 43 -25 c23 -13 235 -133
472 -266z m945 10 c228 -128 427 -240 443 -249 l27 -17 -417 -235 c-229 -129
-443 -249 -475 -266 l-58 -33 0 536 0 536 33 -20 c17 -11 219 -124 447 -252z"/>
</g>
</svg>
