<?xml version="1.0" standalone="no"?>
<!DOCTYPE svg PUBLIC "-//W3C//DTD SVG 20010904//EN"
 "http://www.w3.org/TR/2001/REC-SVG-20010904/DTD/svg10.dtd">
<svg version="1.0" xmlns="http://www.w3.org/2000/svg"
 width="16.000000pt" height="16.000000pt" viewBox="0 0 16.000000 16.000000"
 preserveAspectRatio="xMidYMid meet">
<metadata>
Created by potrace 1.11, written by Peter Selinger 2001-2013
</metadata>
<g transform="translate(0.000000,16.000000) scale(0.003524,-0.003524)"
fill="#000000" stroke="none">
<path d="M2125 4515 c-748 -106 -1380 -552 -1718 -1212 -169 -330 -247 -657
-247 -1033 0 -376 78 -703 247 -1033 308 -602 868 -1032 1538 -1181 198 -43
507 -59 723 -35 417 45 846 223 1175 489 l79 63 119 -119 c65 -65 119 -114
119 -109 0 5 50 272 110 594 61 321 108 586 106 588 -2 3 -126 -18 -274 -46
-149 -28 -275 -51 -280 -51 -6 0 14 46 43 103 60 115 115 267 147 414 19 85
22 128 22 323 0 195 -3 238 -22 323 -70 316 -205 572 -416 794 l-68 73 221
226 222 227 -33 34 c-18 19 -69 63 -113 98 -300 235 -645 389 -1020 456 -156
28 -527 36 -680 14z m555 -46 c428 -49 879 -247 1181 -518 l44 -40 -205 -205
c-113 -113 -208 -206 -212 -206 -5 0 -36 23 -70 51 -176 142 -419 254 -675
311 -85 19 -128 22 -323 22 -195 0 -238 -3 -323 -22 -319 -71 -573 -205 -801
-422 -236 -225 -393 -508 -468 -847 -19 -85 -22 -128 -22 -323 0 -251 10 -322
78 -525 157 -469 542 -854 1011 -1011 203 -68 274 -78 525 -78 251 0 322 10
525 78 200 67 478 231 532 313 16 24 16 25 -88 129 -57 57 -99 104 -94 104 6
0 237 43 514 95 277 52 505 94 507 92 1 -1 -41 -233 -94 -515 l-96 -513 -96
96 c-77 77 -100 94 -116 88 -10 -4 -53 -35 -95 -69 -222 -184 -520 -338 -804
-417 -200 -56 -372 -78 -605 -78 -351 0 -657 72 -970 227 -446 222 -782 558
-1004 1004 -157 317 -227 619 -227 980 0 361 70 663 227 980 222 446 558 782
1004 1004 386 191 808 265 1240 215z m-587 -1999 c191 -107 347 -197 347 -200
0 -3 -172 -102 -382 -220 -211 -118 -398 -223 -415 -233 l-33 -19 0 471 0 472
68 -38 c37 -21 224 -126 415 -233z m854 -2 c199 -112 362 -205 362 -208 0 -4
-241 -141 -771 -437 l-58 -33 0 470 0 470 53 -30 c28 -16 215 -121 414 -232z"/>
</g>
</svg>
